<?xml version="1.0"?>
<svg width="278" height="228" xmlns="http://www.w3.org/2000/svg" xmlns:svg="http://www.w3.org/2000/svg">
 <!-- Created with SVG-edit - https://github.com/SVG-Edit/svgedit-->

 <g class="layer">
  <title>Layer 1</title>
  <path d="m117.246596,222.18364l-114.7466,-53.41937l28.73915,-162.35718l244.01492,0l-36.26087,163.35718l-121.7466,52.41937z" fill="#002756" id="svg_6" stroke="#002756" stroke-dasharray="null" stroke-linecap="null" stroke-linejoin="null" stroke-width="5"/>
  <line fill="none" id="svg_7" stroke="#ffffff" stroke-dasharray="null" stroke-linecap="round" stroke-linejoin="round" stroke-width="10" x1="94.093036" x2="117.093056" y1="5.666664" y2="222.66666"/>
  <line fill="none" id="svg_2" stroke="#ffffff" stroke-dasharray="null" stroke-linecap="round" stroke-linejoin="round" stroke-width="10" x1="201.75971" x2="117.75971" y1="5.000001" y2="222.999994"/>
  <line fill="none" id="svg_4" stroke="#ffffff" stroke-dasharray="null" stroke-linecap="round" stroke-linejoin="round" stroke-width="10" x1="264.75971" x2="211.75971" y1="61.999994" y2="61.999994"/>
  <line fill="none" id="svg_5" stroke="#ffffff" stroke-dasharray="null" stroke-linecap="round" stroke-linejoin="round" stroke-width="10" x1="207.25971" x2="154.25971" y1="129.499994" y2="129.499994"/>
  <path d="m27.474343,174.042732l42.497877,-0.585473l9.367535,20.459381l-48.299362,0l-3.56605,-19.873908z" fill="#ffffff" id="svg_9" stroke="#ffffff" stroke-dasharray="null" stroke-linecap="round" stroke-linejoin="round" stroke-width="5" transform="rotate(25.2011 53.407 183.687)"/>
  <path d="m37.689883,63.539759l27.398021,-11.602977l24.99963,45.953987l-43.12973,0l-9.267921,-34.35101z" fill="#ffffff" id="svg_10" stroke="#ffffff" stroke-dasharray="null" stroke-linecap="round" stroke-linejoin="round" stroke-width="5" transform="rotate(25.2011 63.8887 74.9138)"/>
  <path d="m121.75972,4.999992l48,0l-17,59.999996l-25,0l-6,-59.999996z" fill="#ffffff" id="svg_11" stroke="#ffffff" stroke-dasharray="null" stroke-linecap="round" stroke-linejoin="round" stroke-width="5"/>
 </g>
</svg>